<?xml version="1.0" encoding="utf-8"?>
<!-- Generator: Adobe Illustrator 16.0.0, SVG Export Plug-In . SVG Version: 6.00 Build 0)  -->
<!DOCTYPE svg PUBLIC "-//W3C//DTD SVG 1.1//EN" "http://www.w3.org/Graphics/SVG/1.1/DTD/svg11.dtd">
<svg version="1.1" id="Warstwa_1" xmlns="http://www.w3.org/2000/svg" xmlns:xlink="http://www.w3.org/1999/xlink" x="0px" y="0px"
	 width="167.468px" height="54.855px" viewBox="0 0 167.468 54.855" enable-background="new 0 0 167.468 54.855"
	 xml:space="preserve">
<g>
	<path fill="#FFFFFF" d="M26.165,24.256c0.211-0.361,0.451-0.721,0.75-1.02c0.48-0.48,1.02-0.842,1.682-1.082
		c0.51-0.178,1.049-0.27,1.646-0.27c0.604,0,1.143,0.092,1.623,0.24c0.328,0.121,0.656,0.27,0.932,0.451
		c0.328,0.24,0.627,0.479,0.867,0.75c0.357,0.357,0.633,0.779,0.838,1.229c0.123,0.182,0.211,0.393,0.27,0.57l3.75-2.398
		c-0.205-0.391-0.445-0.779-0.686-1.141c-0.51-0.721-1.084-1.35-1.711-1.859c-0.633-0.543-1.289-0.961-2.039-1.26
		c-1.113-0.51-2.344-0.75-3.721-0.75c-2.76,0-5.191,1.049-6.902,2.818c-1.078,1.08-1.887,2.49-2.338,4.08
		c-0.27,0.961-0.422,1.98-0.422,3.059c0,1.082,0.152,2.131,0.422,3.092c0.451,1.59,1.26,2.971,2.338,4.082
		c1.711,1.77,4.143,2.818,6.902,2.818c1.377,0,2.607-0.27,3.721-0.75c0.75-0.328,1.436-0.75,2.039-1.26h0.029
		c0.299-0.299,0.598-0.568,0.867-0.873c0.393-0.416,0.785-0.898,1.084-1.408c0.146-0.211,0.299-0.451,0.416-0.691l-3.75-2.428
		c-0.059,0.178-0.146,0.389-0.27,0.57c-0.299,0.568-0.627,1.078-1.078,1.5c-0.779,0.719-1.828,1.17-3.182,1.17
		c-1.166,0-2.156-0.361-2.936-0.961c-1.295-1.078-1.951-2.881-1.951-4.861c0-0.779,0.117-1.529,0.299-2.217
		C25.772,25.035,25.954,24.615,26.165,24.256z"/>
	<polygon fill="#FFFFFF" points="86.329,22.006 88.431,22.006 88.431,37.244 93.021,37.244 93.021,18.135 86.329,18.135 	"/>
	<rect x="88.431" y="9.408" fill="#FFFFFF" width="4.59" height="5.158"/>
	<path fill="#FFFFFF" d="M60.149,27.867c0.105-5.668-4.195-10.037-9.984-10.148c-5.338-0.096-10.219,4.131-10.324,9.773
		c-0.105,5.729,4.471,10.074,9.926,10.174C55.649,37.777,60.044,33.621,60.149,27.867z M44.493,27.609
		c0.059-3.061,2.238-5.783,5.625-5.719c3.393,0.062,5.408,2.83,5.35,5.922c-0.053,3.084-2.174,5.748-5.566,5.686
		C46.515,33.434,44.435,30.697,44.493,27.609z"/>
	<path fill="#FFFFFF" d="M103.724,31.457v-9.303h2.91v-4.02h-2.91v-5.971h-4.65v5.971h-2.76v4.02h2.789v10.592
		c0,3.537,1.621,4.498,4.621,4.498h3.004v-3.748h-1.543C103.083,33.496,103.724,33.105,103.724,31.457z"/>
	<path fill="#FFFFFF" d="M118.442,25.635c-2.189-0.48-3.959-1.049-3.959-2.49c0-1.049,1.08-1.648,2.822-1.648
		c1.559,0,3.422,0.57,5.367,1.918l1.863-3.447c-2.074-1.381-4.324-2.25-7.172-2.25c-3.959,0-7.051,1.947-7.051,5.85
		c0,3.9,3.631,5.16,6.453,5.699c2.066,0.389,4.078,0.961,4.078,2.49c0,1.139-1.172,2.1-3.125,2.1c-1.676,0-3.895-0.811-6.203-2.551
		l-2.131,3.449c2.428,1.922,5.486,2.912,8.307,2.912c4.055,0,7.41-1.682,7.41-5.969C125.103,27.316,121.353,26.236,118.442,25.635z"
		/>
	<path fill="#FFFFFF" d="M144.649,33.404v-15.27h-4.586v12.42c-1.625,1.801-3.125,2.941-4.863,2.941
		c-2.164,0-2.762-1.111-2.762-3.51V18.135h-4.617v13.23c0,3.178,1.051,6.301,5.637,6.301c2.25,0,3.961-0.633,6.844-2.701
		l0.207,2.279h6.238v-3.84H144.649z"/>
	<path fill="#FFFFFF" d="M82.349,12.164h-4.557v7.16c-1.547-0.977-3.398-1.572-5.449-1.611c-5.334-0.096-10.217,4.131-10.322,9.773
		c-0.105,5.729,4.469,10.074,9.926,10.174c2.395,0.047,4.52-0.645,6.232-1.834l0.236,1.418h3.934h2.055v-3.84h-2.055V12.164z
		 M72.083,33.492c-3.387-0.064-5.469-2.801-5.41-5.889c0.057-3.061,2.238-5.783,5.625-5.719c3.391,0.062,5.41,2.83,5.352,5.922
		C77.593,30.891,75.474,33.555,72.083,33.492z"/>
	<path fill="#FFFFFF" d="M61.052,46.959c-3.898,0-7.301-2.771-8.09-6.586l-4.523,0.932c1.229,5.953,6.531,10.271,12.613,10.271
		c6.098,0,11.414-4.318,12.641-10.271l-4.523-0.932C68.382,44.188,64.966,46.959,61.052,46.959z"/>
</g>
</svg>
